<mxfile host="app.diagrams.net" modified="2024-05-12T13:29:21.914Z" agent="Mozilla/5.0 (Windows NT 10.0; Win64; x64) AppleWebKit/537.36 (KHTML, like Gecko) Chrome/124.0.0.0 Safari/537.36 Edg/124.0.0.0" etag="SHKLwD9ZbK1g6Erpf9mE" version="24.4.0" type="github">
  <diagram name="Page-1" id="71gPwcARb8OjIOuCSMgN">
    <mxGraphModel dx="746" dy="433" grid="1" gridSize="10" guides="1" tooltips="1" connect="1" arrows="1" fold="1" page="1" pageScale="1" pageWidth="850" pageHeight="1100" math="0" shadow="0">
      <root>
        <mxCell id="0" />
        <mxCell id="1" parent="0" />
        <mxCell id="2si2PZ7sYuk8LzpxSsn6-1" value="AWS Cloud" style="points=[[0,0],[0.25,0],[0.5,0],[0.75,0],[1,0],[1,0.25],[1,0.5],[1,0.75],[1,1],[0.75,1],[0.5,1],[0.25,1],[0,1],[0,0.75],[0,0.5],[0,0.25]];outlineConnect=0;gradientColor=none;html=1;whiteSpace=wrap;fontSize=12;fontStyle=0;container=1;pointerEvents=0;collapsible=0;recursiveResize=0;shape=mxgraph.aws4.group;grIcon=mxgraph.aws4.group_aws_cloud_alt;strokeColor=#232F3E;fillColor=none;verticalAlign=top;align=left;spacingLeft=30;fontColor=#232F3E;dashed=0;" vertex="1" parent="1">
          <mxGeometry x="40" y="50" width="470" height="320" as="geometry" />
        </mxCell>
        <mxCell id="2si2PZ7sYuk8LzpxSsn6-6" value="" style="edgeStyle=orthogonalEdgeStyle;rounded=0;orthogonalLoop=1;jettySize=auto;html=1;labelBackgroundColor=#FFFFFF;" edge="1" parent="2si2PZ7sYuk8LzpxSsn6-1" source="2si2PZ7sYuk8LzpxSsn6-18">
          <mxGeometry relative="1" as="geometry">
            <mxPoint x="230" y="14.18" as="sourcePoint" />
            <mxPoint x="130" y="74.18" as="targetPoint" />
          </mxGeometry>
        </mxCell>
        <mxCell id="2si2PZ7sYuk8LzpxSsn6-8" value="" style="edgeStyle=orthogonalEdgeStyle;rounded=0;orthogonalLoop=1;jettySize=auto;html=1;labelBackgroundColor=#FFFFFF;" edge="1" parent="2si2PZ7sYuk8LzpxSsn6-1" source="2si2PZ7sYuk8LzpxSsn6-18">
          <mxGeometry relative="1" as="geometry">
            <mxPoint x="270" y="14.18" as="sourcePoint" />
            <mxPoint x="370" y="74.18" as="targetPoint" />
          </mxGeometry>
        </mxCell>
        <mxCell id="2si2PZ7sYuk8LzpxSsn6-11" value="" style="edgeStyle=orthogonalEdgeStyle;rounded=0;orthogonalLoop=1;jettySize=auto;html=1;labelBackgroundColor=#FFFFFF;" edge="1" parent="2si2PZ7sYuk8LzpxSsn6-1">
          <mxGeometry relative="1" as="geometry">
            <mxPoint x="130" y="114.18" as="sourcePoint" />
            <mxPoint x="130" y="154.18" as="targetPoint" />
          </mxGeometry>
        </mxCell>
        <mxCell id="2si2PZ7sYuk8LzpxSsn6-15" value="" style="edgeStyle=orthogonalEdgeStyle;rounded=0;orthogonalLoop=1;jettySize=auto;html=1;labelBackgroundColor=#FFFFFF;" edge="1" parent="2si2PZ7sYuk8LzpxSsn6-1">
          <mxGeometry relative="1" as="geometry">
            <mxPoint x="370" y="114.18" as="sourcePoint" />
            <mxPoint x="370" y="154.18" as="targetPoint" />
          </mxGeometry>
        </mxCell>
        <mxCell id="2si2PZ7sYuk8LzpxSsn6-17" value="vms" style="sketch=0;outlineConnect=0;fontColor=#232F3E;gradientColor=none;fillColor=#DD344C;strokeColor=none;dashed=0;verticalLabelPosition=bottom;verticalAlign=top;align=center;html=1;fontSize=12;fontStyle=0;aspect=fixed;pointerEvents=1;shape=mxgraph.aws4.organizations_account;labelBackgroundColor=#FFFFFF;" vertex="1" parent="2si2PZ7sYuk8LzpxSsn6-1">
          <mxGeometry x="40" y="234.18" width="37.95" height="40" as="geometry" />
        </mxCell>
        <mxCell id="2si2PZ7sYuk8LzpxSsn6-16" value="&lt;span style=&quot;&quot;&gt;org-ou-root-infrastructure&lt;/span&gt;" style="sketch=0;outlineConnect=0;fontColor=#232F3E;gradientColor=none;fillColor=#DD344C;strokeColor=none;dashed=0;verticalLabelPosition=bottom;verticalAlign=top;align=center;html=1;fontSize=12;fontStyle=0;aspect=fixed;pointerEvents=1;shape=mxgraph.aws4.organizations_organizational_unit;labelBackgroundColor=#FFFFFF;" vertex="1" parent="2si2PZ7sYuk8LzpxSsn6-1">
          <mxGeometry x="105.5" y="72.09" width="49" height="42.09" as="geometry" />
        </mxCell>
        <mxCell id="2si2PZ7sYuk8LzpxSsn6-18" value="&lt;span style=&quot;&quot;&gt;org-ou-root&lt;/span&gt;" style="sketch=0;outlineConnect=0;fontColor=#232F3E;gradientColor=none;fillColor=#DD344C;strokeColor=none;dashed=0;verticalLabelPosition=bottom;verticalAlign=top;align=center;html=1;fontSize=12;fontStyle=0;aspect=fixed;pointerEvents=1;shape=mxgraph.aws4.organizations_organizational_unit;labelBackgroundColor=#FFFFFF;" vertex="1" parent="2si2PZ7sYuk8LzpxSsn6-1">
          <mxGeometry x="225.5" y="29.999999999999993" width="49" height="42.09" as="geometry" />
        </mxCell>
        <mxCell id="2si2PZ7sYuk8LzpxSsn6-23" style="edgeStyle=orthogonalEdgeStyle;rounded=0;orthogonalLoop=1;jettySize=auto;html=1;labelBackgroundColor=#FFFFFF;" edge="1" parent="2si2PZ7sYuk8LzpxSsn6-1" source="2si2PZ7sYuk8LzpxSsn6-21" target="2si2PZ7sYuk8LzpxSsn6-17">
          <mxGeometry relative="1" as="geometry" />
        </mxCell>
        <mxCell id="2si2PZ7sYuk8LzpxSsn6-24" style="edgeStyle=orthogonalEdgeStyle;rounded=0;orthogonalLoop=1;jettySize=auto;html=1;labelBackgroundColor=#FFFFFF;" edge="1" parent="2si2PZ7sYuk8LzpxSsn6-1" source="2si2PZ7sYuk8LzpxSsn6-21" target="2si2PZ7sYuk8LzpxSsn6-22">
          <mxGeometry relative="1" as="geometry" />
        </mxCell>
        <mxCell id="2si2PZ7sYuk8LzpxSsn6-21" value="&lt;span style=&quot;&quot;&gt;org-ou-root_infrastructure-env&lt;/span&gt;" style="sketch=0;outlineConnect=0;fontColor=#232F3E;gradientColor=none;fillColor=#DD344C;strokeColor=none;dashed=0;verticalLabelPosition=bottom;verticalAlign=top;align=center;html=1;fontSize=12;fontStyle=0;aspect=fixed;pointerEvents=1;shape=mxgraph.aws4.organizations_organizational_unit;labelBackgroundColor=#FFFFFF;" vertex="1" parent="2si2PZ7sYuk8LzpxSsn6-1">
          <mxGeometry x="105.5" y="154.18" width="49" height="42.09" as="geometry" />
        </mxCell>
        <mxCell id="2si2PZ7sYuk8LzpxSsn6-20" value="&lt;span style=&quot;&quot;&gt;org-ou-root_workloads&lt;/span&gt;" style="sketch=0;outlineConnect=0;fontColor=#232F3E;gradientColor=none;fillColor=#DD344C;strokeColor=none;dashed=0;verticalLabelPosition=bottom;verticalAlign=top;align=center;html=1;fontSize=12;fontStyle=0;aspect=fixed;pointerEvents=1;shape=mxgraph.aws4.organizations_organizational_unit;labelBackgroundColor=#FFFFFF;" vertex="1" parent="2si2PZ7sYuk8LzpxSsn6-1">
          <mxGeometry x="345.5" y="72.09" width="49" height="42.09" as="geometry" />
        </mxCell>
        <mxCell id="2si2PZ7sYuk8LzpxSsn6-26" style="edgeStyle=orthogonalEdgeStyle;rounded=0;orthogonalLoop=1;jettySize=auto;html=1;" edge="1" parent="2si2PZ7sYuk8LzpxSsn6-1" source="2si2PZ7sYuk8LzpxSsn6-19" target="2si2PZ7sYuk8LzpxSsn6-25">
          <mxGeometry relative="1" as="geometry" />
        </mxCell>
        <mxCell id="2si2PZ7sYuk8LzpxSsn6-19" value="&lt;span style=&quot;&quot;&gt;org-ou-root_workloads-env&lt;/span&gt;" style="sketch=0;outlineConnect=0;fontColor=#232F3E;gradientColor=none;fillColor=#DD344C;strokeColor=none;dashed=0;verticalLabelPosition=bottom;verticalAlign=top;align=center;html=1;fontSize=12;fontStyle=0;aspect=fixed;pointerEvents=1;shape=mxgraph.aws4.organizations_organizational_unit;labelBackgroundColor=#FFFFFF;" vertex="1" parent="2si2PZ7sYuk8LzpxSsn6-1">
          <mxGeometry x="345.5" y="154.18" width="49" height="42.09" as="geometry" />
        </mxCell>
        <mxCell id="2si2PZ7sYuk8LzpxSsn6-22" value="network" style="sketch=0;outlineConnect=0;fontColor=#232F3E;gradientColor=none;fillColor=#DD344C;strokeColor=none;dashed=0;verticalLabelPosition=bottom;verticalAlign=top;align=center;html=1;fontSize=12;fontStyle=0;aspect=fixed;pointerEvents=1;shape=mxgraph.aws4.organizations_account;labelBackgroundColor=#FFFFFF;" vertex="1" parent="2si2PZ7sYuk8LzpxSsn6-1">
          <mxGeometry x="180" y="234.18" width="37.95" height="40" as="geometry" />
        </mxCell>
        <mxCell id="2si2PZ7sYuk8LzpxSsn6-25" value="workload-a" style="sketch=0;outlineConnect=0;fontColor=#232F3E;gradientColor=none;fillColor=#DD344C;strokeColor=none;dashed=0;verticalLabelPosition=bottom;verticalAlign=top;align=center;html=1;fontSize=12;fontStyle=0;aspect=fixed;pointerEvents=1;shape=mxgraph.aws4.organizations_account;labelBackgroundColor=#FFFFFF;" vertex="1" parent="2si2PZ7sYuk8LzpxSsn6-1">
          <mxGeometry x="300" y="234.18" width="37.95" height="40" as="geometry" />
        </mxCell>
      </root>
    </mxGraphModel>
  </diagram>
</mxfile>
